<svg height="2048" viewBox="0 0 2730 2048" width="2730" xmlns="http://www.w3.org/2000/svg"><path d="m2759-20.9v2084.7h-2772.7v-2084.7z" fill="#fff" fill-rule="evenodd" stroke="#000" stroke-miterlimit="10" stroke-width="5.2"/><path d="m130.7 332v-243h49l62 165.4 62.3-165.4h49v243h-32v-213.4l-62.7 166.7h-33l-62.7-166.7v213.4zm357-161.3q-24.1 0-38.1 18.9-14 18.7-14 51.4 0 32.7 13.8 51.6 14 18.7 38.3 18.7 23.9 0 37.9-18.9 14-18.8 14-51.4 0-32.4-14-51.3-14-19-37.9-19zm0-25.4q39 0 61.3 25.4 22.3 25.4 22.3 70.3 0 44.8-22.3 70.3-22.3 25.4-61.3 25.4-39.3 0-61.6-25.4-22.1-25.5-22.1-70.3 0-44.9 22.1-70.3 22.3-25.4 61.6-25.4zm180.2 186.7-68.4-182.3h31.7l57 153 57-153h31.7l-68.3 182.3zm306.3-98.6v14.6h-137.7q2 30.9 18.6 47.2 16.7 16.1 46.5 16.1 17.3 0 33.4-4.2 16.3-4.2 32.2-12.7v28.3q-16.1 6.9-33 10.4-17 3.6-34.4 3.6-43.6 0-69.2-25.4-25.4-25.4-25.4-68.7 0-44.7 24.1-70.9 24.3-26.4 65.3-26.4 36.8 0 58.1 23.8 21.5 23.6 21.5 64.3zm-136.7-8.7 106.8-.1q-.4-24.6-13.9-39.3-13.3-14.6-35.5-14.6-25 0-40.2 14.1-14.9 14.2-17.2 39.9zm324.4 79.6h114.8v27.7h-154.4v-27.7q18.8-19.3 51-51.9 32.4-32.7 40.7-42.2 15.8-17.7 22-29.9 6.3-12.4 6.3-24.3 0-19.3-13.7-31.5-13.5-12.3-35.3-12.3-15.4 0-32.7 5.4-17.1 5.4-36.6 16.3v-33.2q19.8-8 37.1-12.1 17.2-4 31.6-4 37.7 0 60.2 18.9 22.5 18.8 22.5 50.4 0 15-5.7 28.5-5.6 13.4-20.4 31.6-4.1 4.7-25.9 27.3-21.8 22.5-61.5 63zm401.7-149.2v28.3q-12.7-6.5-26.3-9.8-13.7-3.2-28.3-3.2-22.4 0-33.6 6.8-11.1 6.8-11.1 20.5 0 10.4 8 16.4 8 5.9 32.1 11.3l10.2 2.3q32 6.8 45.3 19.3 13.5 12.4 13.5 34.7 0 25.4-20.2 40.2-20 14.8-55.2 14.8-14.6 0-30.6-2.7-15.7-3-33.3-8.7v-30.9q16.6 8.6 32.7 13 16.1 4.3 31.9 4.3 21.2 0 32.6-7.2 11.3-7.3 11.3-20.5 0-12.2-8.3-18.7-8.1-6.6-35.9-12.6l-10.4-2.4q-27.9-5.9-40.3-17.9-12.3-12.2-12.3-33.4 0-25.7 18.2-39.7 18.2-14 51.8-14 16.6 0 31.2 2.4 14.7 2.5 27 7.4zm86.5 149.6v96.6h-30.1v-251.6h30.1v27.7q9.4-16.3 23.7-24.1 14.5-8 34.6-8 33.2 0 53.8 26.4 20.9 26.3 20.9 69.3 0 43-20.9 69.4-20.6 26.3-53.8 26.3-20.1 0-34.6-7.8-14.3-8-23.7-24.2zm101.9-63.7q0-33-13.7-51.8-13.5-18.8-37.3-18.8-23.7 0-37.4 18.8-13.5 18.8-13.5 51.8 0 33 13.5 51.9 13.7 18.8 37.4 18.8 23.8 0 37.3-18.8 13.7-18.9 13.7-51.9zm193.4-.6h-29.8q-36.3 0-50.3 8.3-14 8.3-14 28.3 0 15.9 10.4 25.4 10.6 9.3 28.6 9.3 25 0 39.9-17.6 15.2-17.8 15.2-47.1zm29.9-12.3v104h-29.9v-27.7q-10.3 16.6-25.6 24.6-15.3 7.8-37.4 7.8-28 0-44.6-15.6-16.5-15.8-16.5-42.2 0-30.8 20.5-46.4 20.7-15.6 61.6-15.6h42v-2.9q0-20.7-13.7-31.9-13.5-11.4-38.1-11.4-15.6 0-30.4 3.7-14.9 3.7-28.5 11.2v-27.6q16.4-6.4 31.9-9.5 15.4-3.2 30.1-3.2 39.6 0 59.1 20.5 19.5 20.5 19.5 62.2zm192.9-71.3v28q-12.7-7-25.5-10.5-12.7-3.5-25.8-3.5-29.1 0-45.2 18.5-16.1 18.4-16.1 51.8 0 33.3 16.1 51.9 16.1 18.4 45.2 18.4 13.1 0 25.8-3.4 12.8-3.6 25.5-10.6v27.7q-12.5 5.8-26 8.8-13.4 2.9-28.5 2.9-41.2 0-65.5-25.9-24.2-25.9-24.2-69.8 0-44.6 24.4-70.2 24.6-25.5 67.2-25.5 13.9 0 27.1 2.9 13.1 2.8 25.5 8.5zm208 76.6v14.7h-137.7q2 30.9 18.6 47.2 16.8 16.1 46.5 16.1 17.3 0 33.4-4.2 16.3-4.3 32.2-12.7v28.3q-16.1 6.8-33 10.4-16.9 3.6-34.3 3.6-43.7 0-69.2-25.4-25.4-25.4-25.4-68.7 0-44.8 24.1-71 24.2-26.3 65.2-26.3 36.8 0 58.2 23.7 21.4 23.6 21.4 64.3zm-136.7-8.6 106.8-.2q-.3-24.5-13.8-39.2-13.4-14.6-35.5-14.6-25.1 0-40.2 14.1-15 14.2-17.3 39.9zm302.1-69.7v28.4q-12.7-6.6-26.3-9.8-13.7-3.3-28.4-3.3-22.3 0-33.5 6.9-11.1 6.8-11.1 20.5 0 10.4 8 16.4 8 5.9 32.1 11.3l10.2 2.2q31.9 6.9 45.3 19.4 13.5 12.4 13.5 34.7 0 25.4-20.2 40.2-20 14.8-55.2 14.8-14.6 0-30.6-2.8-15.8-2.9-33.3-8.6v-30.9q16.6 8.6 32.7 13 16.1 4.2 31.9 4.2 21.1 0 32.5-7.1 11.4-7.4 11.4-20.5 0-12.3-8.3-18.8-8.1-6.5-35.9-12.5l-10.5-2.4q-27.8-5.9-40.2-17.9-12.3-12.3-12.3-33.4 0-25.7 18.2-39.7 18.2-14 51.8-14 16.6 0 31.2 2.4 14.7 2.4 27 7.3zm-2410.9 577v-243.1h139.6v27.7h-106.7v71.6h96.3v27.7h-96.3v116.1zm290.4-220.8q-35.8 0-57 26.7-21 26.7-21 72.8 0 45.9 21 72.6 21.2 26.7 57 26.7 35.8 0 56.6-26.7 21-26.7 21-72.6 0-46.1-21-72.8-20.8-26.7-56.6-26.7zm0-26.7q51.1 0 81.7 34.4 30.6 34.2 30.6 91.8 0 57.5-30.6 91.8-30.6 34.2-81.7 34.2-51.3 0-82.1-34.2-30.6-34.2-30.6-91.8 0-57.6 30.6-91.8 30.8-34.4 82.1-34.4zm279 133.5q10.6 3.6 20.5 15.3 10.1 11.7 20.2 32.3l33.3 66.4h-35.3l-31.1-62.4q-12-24.4-23.4-32.4-11.2-7.9-30.8-7.9h-35.8v102.7h-32.9v-243.1h74.3q41.6 0 62.1 17.5 20.5 17.4 20.5 52.5 0 23-10.7 38.1-10.6 15.2-30.9 21zm-41-102h-41.4v86.2h41.4q23.7 0 35.8-10.9 12.2-11 12.2-32.4 0-21.3-12.2-32-12.1-10.9-35.8-10.9zm183.1 216-60.9-243.1h33.2l51.1 205.5 51-205.5h36.9l51.1 205.5 51-205.5h33.4l-61.1 243.1h-41.3l-51.3-211-51.8 211zm398.2-89.7-44.8-121-44.6 121zm-156.1 89.7 92.8-243.1h37.3l92.6 243.1h-34.2l-22.1-62.4h-109.6l-22.1 62.4zm373.4-114q10.6 3.6 20.5 15.3 10.1 11.7 20.2 32.3l33.4 66.4h-35.3l-31.1-62.4q-12.1-24.4-23.5-32.4-11.2-7.9-30.7-7.9h-35.9v102.7h-32.8v-243.1h74.2q41.7 0 62.2 17.5 20.5 17.4 20.5 52.5 0 23-10.8 38.1-10.5 15.2-30.9 21zm-41-102h-41.4v86.2h41.4q23.8 0 35.8-10.9 12.2-11 12.2-32.4 0-21.3-12.2-32-12-10.9-35.8-10.9zm230 0h-39.7v189h39.7q50.3 0 73.6-22.8 23.4-22.8 23.4-72 0-48.8-23.4-71.4-23.3-22.8-73.6-22.8zm-72.6 216v-243.1h67.6q70.6 0 103.6 29.5 33.1 29.3 33.1 91.8 0 62.8-33.2 92.3-33.2 29.5-103.5 29.5zm274.2 0v-41.4h33.1v41.4zm0-136.4v-106.7h33v106.7l-3.2 58.1h-26.4z"/><g fill="none" stroke="#000" stroke-miterlimit="10" stroke-width="26"><path d="m203.8 1294.3c27.6 0 55.1-2.3 82.7-2.6 26.8-.3 53.9.7 80.7-1.2 13-.9 25.7-3.4 38.8-3.6 120.3-1.8 240.9.3 361.2 1.2 76 .5 150.9 14.2 227 14.2 16.2 0 32.9-3.1 49-5 1-.1 12.2-.6 12.4-2.9.4-3.7-37.5-31.4-40-33.4-55.5-43-109.2-90.3-167.3-129.6-41.4-28-99.7-73.7-146.7-93.8"/><path d="m1053.4 1295.4c-10.6 4.5-19.9 12.2-29.8 18.2-19.1 11.4-38.6 22.8-56.4 36.4-20.7 15.8-38.2 35.9-57.1 53.6-26.6 25.1-61.4 52.6-92.1 72.2-14.9 9.6-60.3 45.5-75.8 49.8"/><path d="m1417.2 1290.4c56.9 0 114.2 1.1 170.9-1.3 23.7-.9 47.6-4.9 71.2-6.8 31-2.6 63.6-2.5 94.7-2.8 37.9-.4 75.8-.1 113.6 1.9 15.1.7 30 4.5 45.2 5.1 63.4 2.3 127.1 1.3 190.5 1.3 55.4 0 110.8-4.6 166.1-2.9 13.2.4 28.5 4.6 41.5 3.5.9 0 1.7-.1 2.1-1.1 2.4-6.5-6.1-14.7-9-19.6-3.8-6.3-10.3-11.7-15.1-17.4-10-12-18.8-27.3-27.1-40.7-41.8-68.2-120.5-114.4-185-158-14.8-10-37.6-34.1-48.7-48.8-4.1-5.4-6.9-12-11.5-17"/><path d="m2312.9 1286.3c-16.6 13.2-29.1 31.9-43.4 47.4-23.3 25.1-50.2 47-73.9 71.6-18.7 19.4-36.9 39.4-55.9 58.4-18.8 18.8-37.8 37.7-56.8 56.4-4.7 4.6-21.5 17.3-23.6 22.8"/><path d="m1399.6 1624.4c17.9-5.1 34.6-11.6 53.2-15.1 8.1-1.5 19.8-4.8 27.9-1.8 19.1 7 32.9 43.6 18 59.7-5 5.5-16 6.5-22.6 8.1-16 4.1-32.4 10.8-49 11.1"/><path d="m1437.6 1846.3c.4.2-.8-.4-1.1-.7-1.4-.7-4.1-2.2-5.5-2.7-4.6-1.8-9.9-3.4-14.7-4.3-14.2-2.8-35-3.8-48.4 2.4-6.1 2.7-9.3 7.8-13.1 13.2-12.2 17.4-24.4 50.5-6.4 68.7 16.9 17.2 38.5 23.7 62.2 26.3 7.2.7 16.9 2.5 24.1.5 16.2-4.6 37.4-22.5 45.4-37.5 12.4-23.3-.2-41.4-16.7-56.2-6.8-6.1-16.1-10.4-23.9-14.8-1.2-.6-9.4-2.2-9.6-1.1-.4 2.6 5 4.9 7.7 6.2z"/></g></svg>