<svg height="1024" viewBox="0 0 1024 1024" width="1024" xmlns="http://www.w3.org/2000/svg" xmlns:xlink="http://www.w3.org/1999/xlink"><linearGradient id="a" gradientTransform="matrix(1024 0 0 1024 0 512.01)" gradientUnits="userSpaceOnUse" x2="1"><stop offset="0" stop-color="#c7b740"/><stop offset="1" stop-color="#694e00"/></linearGradient><radialGradient id="b" cx="512" cy="511.998" gradientUnits="userSpaceOnUse" r="418.772"><stop offset="0" stop-color="#d6de47"/><stop offset="1" stop-color="#7d8324"/></radialGradient><path d="m512 1024c-283.1 0-512-228.9-512-512s228.9-512 512-512 512 228.9 512 512-228.9 512-512 512z" fill="url(#a)" fill-rule="evenodd"/><path d="m512 930.8c-231.6 0-418.8-187.2-418.8-418.8s187.2-418.8 418.8-418.8 418.8 187.2 418.8 418.8-187.2 418.8-418.8 418.8z" fill="url(#b)" fill-rule="evenodd"/><path d="m567 532.5v-236.8l-151.5 236.8zm-200.2-8 184.5-281h75.4v289h63.3v49.9h-63.3v104.6h-59.7v-104.6h-200.2z" fill="#fc0"/></svg>