<svg height="1024" viewBox="0 0 1024 1024" width="1024" xmlns="http://www.w3.org/2000/svg"><path d="m1035.9-8v1041h-1047.9v-1041z" fill="#d8d8d8" fill-rule="evenodd"/><path d="m514.9 683.8c-166.4 0-300.9-111.8-300.9-250 0-138.3 134.5-250.1 300.9-250.1s300.9 111.8 300.9 250.1c0 138.2-134.5 250-300.9 250z" fill="none" stroke="#000" stroke-miterlimit="10" stroke-width="23.8"/><path d="m353 166.7c5.9 10.3-4.4 16.2-4.4 16.2l-11 6.3c-19.8 11.2-25.6 27.7-31 49.8 0 0-2.9 11.5-14.5 8.6-11.5-2.8-8.6-14.4-8.6-14.4 7.4-29.2 16.5-48.6 42-64.5l11.3-6.4s10.3-6 16.2 4.4z"/><path d="m729.6 200.6c5.4 10.7-5.3 16-5.3 16l-1.1.5q.7.8 1.2 1.8c6.2 10.2-4 16.3-4 16.3l-7.2 4.2q-5.6 4-11.1 8s-9.7 6.9-16.6-2.8c-5.6-7.8-.3-13.9 1.9-15.9-1-.2-1.9-.5-2.8-1-11.8 5.1-21.3 10.6-31.7 18.1 0 0-9.7 6.9-16.6-2.8-1.4-1.9-2.1-3.7-2.4-5.4q-.2-.2-.5-.4c-6.2-5.3-4.5-11.2-2.8-14.4-10.3 4.6-19.7 10.1-29.6 15.7 0 0-10.3 5.9-16.2-4.4q-.7-1.3-1.2-2.5c-2 .8-4.6 1-7.8 0-4.3-1.3-6.5-3.7-7.5-6.2l-3.4 2.6c-20.3 8.7-34.1 11.4-55.9 13.6 0 0-11.9 1.2-13.1-10.7q-.1-1.1 0-2.1-3.2 1.9-6.6 3.7s-10.6 5.3-16-5.4c-5.3-10.6 5.4-15.9 5.4-15.9 3.6-1.8 7-3.7 10.2-5.7q-.8-1.1-1.5-2.6c-.8-1.8-1.2-3.5-1.2-5q-.2.3-.2.3l-6.8 8.3c-14.7 9.1-30 19.7-43.2 30.8 0 0-9.1 7.6-16.7-1.5-3.1-3.7-3.5-7.1-2.8-9.9-3 0-6.5-1.3-9.3-5.7-1-1.6-1.6-3.1-1.9-4.5q-1.7.5-3.9.5c-11.9 0-11.9-11.9-11.9-11.9 0-6.8.3-13.3.8-19.6-2.4 2.8-5.8 3.9-5.8 3.9h-1.6c-12.1 8.7-20.3 19.6-30.4 29.6l7 3.6c7.9 2.9 16 5.5 24.2 7.5 0 0 11.5 2.9 8.6 14.4-2.9 11.6-14.4 8.7-14.4 8.7-9.1-2.3-18-5.1-26.7-8.3l-10.4-5.1-2.3 3.6c-14.3 9.3-14.2 21.5-14.1 37.9 0 0 0 12-11.9 12s-11.9-12-11.9-12c.1-25.1 3.5-41.8 24-57.3l-.5-2s.7-1.3 2-2.8c-2-6.9 4.2-12.1 4.2-12.1 14.1-11.6 23.5-26.1 38.8-37l7.9-3.2s10.7-3.6 14.7 6.6c.8-5.4 1.9-10.8 3.1-16.5l5.2-12.1s4.7-11 15.6-6.3c6 2.6 7.3 7 7.3 10.5l9.5-12.2s9.5-7.2 16.6 2.4c1.2 1.5 1.9 3 2.3 4.4 1.5-3 4.5-6 10.5-6 11.9 0 11.9 11.9 11.9 11.9v13.8c8.1-9.9 16.2-17.3 29.4-23.2l8.2-2.2s11.5-2.9 14.4 8.7c2.9 11.5-8.7 14.4-8.7 14.4l-4.5 1c-12.8 5.2-18.2 13-26.2 23.9 1.5 2.1 1.9 4.3 1.8 6.4 2.1-3 5.2-4.4 5.2-4.4q9.3-4.2 18.5-8.4l7-1.8c-1.2-2.7-1.6-6.2 1-10.5 6.1-10.2 16.4-4.1 16.4-4.1l5.6 3.5c4.4-10.8 10.4-17.4 22.4-26.6l5-5.3s8.5-8.4 16.9 0 0 16.8 0 16.8l-7.6 7.5c-5.1 3.7-8.4 6.3-10.8 9.1 2.5.6 6.1 2 7.9 5.7 6-1.3 12.4-2.1 19.9-2.8l5.5-.1c4.3-8.4 9.6-16.5 16.7-22.6l10.8-2.8s9.5 0 11.5 8.5c2.4.9 4 2.2 4 2.2l11.7 10.2c2.8 7.1 5.3 14.3 7.3 21.6 8.7-2.1 17.5-4.9 26.1-5.9l2.9-.1s11.9 0 11.9 11.9c0 2.9-.7 5.1-1.7 6.7q4.7-1.8 9.4-3.5l2.1-1.1s10.6-5.3 15.9 5.3zm-165.8 2.8c2.1.4 4.2 1.5 6.4 3.6q.4.5.8.9c1.5-3.7 3.2-7.2 5.1-10.7-4 1.3-7.9 3.2-12.3 6.2zm-29.1 8-2.6.3q-.9 1.3-1.9 2.7 0 0-.1.2c7.4-1.6 14.4-3.9 23.3-7.6q.1-.1.2-.2c-2.6-.3-5.4-1.6-7.9-5.1q-.3-.4-.6-.9c-.5 9.4-10.4 10.6-10.4 10.6zm-84.9-54.7v-5.1c-1.4 2.2-3.1 3.5-3.1 3.5l-1.6-4.7c0 9.4-.7 18.9-1.7 28.3 0 0 0 .3-.1.8q3.1-2.1 6.5-4 0-9.4 0-18.8zm186.4 22.8-7.4-5.7s-.8-.7-1.7-1.8c-1.5 2-2.8 4.2-4 6.5l7-.4s3.2 0 6.2 1.7q0-.2-.1-.3zm-205.9 9.7c-11.9-1.3-10.6-13.2-10.6-13.2.8-6.9 1.4-14 1.5-21l-3.7 8.5c-2.9 13.4-4.1 25.2-4.2 38.8 6.2-4.1 11.7-8.6 17.2-13.1q-.1 0-.2 0z"/><g stroke="#000" stroke-miterlimit="10" stroke-width="11.9"><path d="m409.4 437.7c-31.7 0-57.2-23.8-57.2-53.2s25.5-53.1 57.2-53.1c31.6 0 57.1 23.7 57.1 53.1s-25.5 53.2-57.1 53.2z" fill="none"/><path d="m612.6 407.6c-31.6 0-57.2-23.8-57.2-53.2s25.6-53.2 57.2-53.2 57.2 23.8 57.2 53.2-25.6 53.2-57.2 53.2z" fill="none"/><path d="m450.6 404.4c0 10.5-8.1 19-18.2 19s-18.3-8.5-18.3-19 8.2-19.1 18.3-19.1 18.2 8.6 18.2 19.1z"/><path d="m653.9 371c0 11.4-8.9 20.7-19.9 20.7-10.9 0-19.8-9.3-19.8-20.7s8.9-20.6 19.8-20.6c11 0 19.9 9.2 19.9 20.6z"/></g><path d="m618.6 475.9c11.1 4.4 6.6 15.5 6.6 15.5l-3.2 8.2q-2.4 5.4-4.7 10.8c-42.3 105.1-161.8 69.5-217.1 3.2 0 0-7.6-9.1 1.5-16.8 9.2-7.6 16.8 1.6 16.8 1.6 41 49.1 145.9 95.2 176.7 3.1q2.4-5.6 4.9-11.3l3-7.7s4.5-11 15.5-6.6z"/><path d="m502.9 495.5c-3.8-11.3 7.5-15.1 7.5-15.1l7-2.1c56.5-7.1.3-29.5-25.5-28.7 0 0-11.9 0-11.9-11.9s11.9-11.9 11.9-11.9c57.4 1.2 115.1 65.3 28.5 76.1l-2.5 1.1s-11.3 3.8-15-7.5z"/><path d="m339.5 640.9v252.5" fill="none" stroke="#000" stroke-linecap="round" stroke-miterlimit="10" stroke-width="23.8"/><path d="m696.8 888.6 1.5-254" fill="none" stroke="#000" stroke-linecap="round" stroke-miterlimit="10" stroke-width="23.8"/><path d="m349.4 639.1c6.6 9.9-3.3 16.5-3.3 16.5l-11.3 7.3c-75.4 33.5-167.7-31.5-215.5-87.2 0 0-7.8-9.1 1.2-16.8 9.1-7.8 16.8 1.3 16.8 1.3 40.9 47.6 123 109.8 187.8 81l7.8-5.4s9.9-6.6 16.5 3.3z"/><path d="m888.6 574.6c9.1 7.7 1.5 16.8 1.5 16.8l-8.7 10.3c-67.4 56.6-93.6 81.1-182.7 45.5 0 0-11.1-4.4-6.6-15.5 4.4-11 15.4-6.6 15.4-6.6 81.1 32.4 95.4 10.9 157.1-40.2l7.2-8.7s7.6-9.2 16.8-1.6z"/></svg>